<?xml version="1.0" encoding="UTF-8" standalone="no"?>
<svg
   xmlns:dc="http://purl.org/dc/elements/1.1/"
   xmlns:cc="http://creativecommons.org/ns#"
   xmlns:rdf="http://www.w3.org/1999/02/22-rdf-syntax-ns#"
   xmlns:svg="http://www.w3.org/2000/svg"
   xmlns="http://www.w3.org/2000/svg"
   xmlns:sodipodi="http://sodipodi.sourceforge.net/DTD/sodipodi-0.dtd"
   xmlns:inkscape="http://www.inkscape.org/namespaces/inkscape"
   version="1.1"
   viewBox="0 0 65.644799 44.682483"
   id="svg12"
   sodipodi:docname="matrix.svg"
   inkscape:version="1.0.2 (e86c870879, 2021-01-15)"
   width="65.644798"
   height="44.682484">
  <metadata
     id="metadata18">
    <rdf:RDF>
      <cc:Work
         rdf:about="">
        <dc:format>image/svg+xml</dc:format>
        <dc:type
           rdf:resource="http://purl.org/dc/dcmitype/StillImage" />
        <dc:title>Matrix (protocol) logo</dc:title>
      </cc:Work>
    </rdf:RDF>
  </metadata>
  <defs
     id="defs16" />
  <sodipodi:namedview
     pagecolor="#ffffff"
     bordercolor="#666666"
     borderopacity="1"
     objecttolerance="10"
     gridtolerance="10"
     guidetolerance="10"
     inkscape:pageopacity="0"
     inkscape:pageshadow="2"
     inkscape:window-width="1920"
     inkscape:window-height="1025"
     id="namedview14"
     showgrid="false"
     inkscape:zoom="8.7285105"
     inkscape:cx="32.353871"
     inkscape:cy="24.749584"
     inkscape:window-x="0"
     inkscape:window-y="55"
     inkscape:window-maximized="0"
     inkscape:current-layer="svg12"
     inkscape:document-rotation="0"
     fit-margin-top="0"
     fit-margin-left="0"
     fit-margin-right="0"
     fit-margin-bottom="0"
     showguides="false" />
  <title
     id="title2">Matrix (protocol) logo</title>
  <path
     d="M -2.8340121,5.5663913 V 39.116092 a 7.2204431,4.1937128 0 0 0 7.2204436,4.193713 H 69.370423 L 54.929537,34.922379 V 5.5663913 A 7.2204431,4.1937128 0 0 0 47.709093,1.3726786 H 4.3864315 a 7.2204431,4.1937128 0 0 0 -7.2204436,4.1937127 z"
     id="path108"
     style="fill:#5b4f8c;fill-opacity:1;stroke:#5b4f8c;stroke-width:2.75139;stroke-opacity:1" />
  <g
     transform="matrix(0.90627465,0,0,0.90627465,13.520567,8.3683145)"
     fill="#040404"
     id="g10"
     style="fill:#ffffff;fill-opacity:1;stroke:#ffffff;stroke-opacity:1">
    <path
       d="M 27.1,31.2 V 0.7 h -2.19 v -0.732 h 3.04 v 32 h -3.04 v -0.732 z"
       id="path4"
       style="fill:#ffffff;fill-opacity:1;stroke:#ffffff;stroke-opacity:1" />
    <path
       d="m 8.23,10.4 v 1.54 h 0.044 c 0.385,-0.564 0.893,-1.03 1.49,-1.37 0.58,-0.323 1.25,-0.485 1.99,-0.485 0.72,0 1.38,0.14 1.97,0.42 0.595,0.279 1.05,0.771 1.36,1.48 0.338,-0.5 0.796,-0.941 1.38,-1.32 0.58,-0.383 1.27,-0.574 2.06,-0.574 0.602,0 1.16,0.074 1.67,0.22 0.514,0.148 0.954,0.383 1.32,0.707 0.366,0.323 0.653,0.746 0.859,1.27 0.205,0.522 0.308,1.15 0.308,1.89 v 7.63 h -3.13 v -6.46 c 0,-0.383 -0.015,-0.743 -0.044,-1.08 -0.0209,-0.307 -0.103,-0.607 -0.242,-0.882 -0.133,-0.251 -0.336,-0.458 -0.584,-0.596 -0.257,-0.146 -0.606,-0.22 -1.05,-0.22 -0.44,0 -0.796,0.085 -1.07,0.253 -0.272,0.17 -0.485,0.39 -0.639,0.662 -0.159,0.287 -0.264,0.602 -0.308,0.927 -0.052,0.347 -0.078,0.697 -0.078,1.05 v 6.35 h -3.13 v -6.4 c 0,-0.338 -0.007,-0.673 -0.021,-1 -0.0114,-0.314 -0.0749,-0.623 -0.188,-0.916 -0.108,-0.277 -0.3,-0.512 -0.55,-0.673 -0.258,-0.168 -0.636,-0.253 -1.14,-0.253 -0.198,0.0083 -0.394,0.042 -0.584,0.1 -0.258,0.0745 -0.498,0.202 -0.705,0.374 -0.228,0.184 -0.422,0.449 -0.584,0.794 -0.161,0.346 -0.242,0.798 -0.242,1.36 v 6.62 h -3.13 v -11.4 z"
       id="path6"
       style="fill:#ffffff;fill-opacity:1;stroke:#ffffff;stroke-opacity:1" />
    <path
       d="m 0.936,0.732 v 30.5 h 2.19 v 0.732 h -3.04 v -32 h 3.03 v 0.732 z"
       id="path8"
       style="fill:#ffffff;fill-opacity:1;stroke:#ffffff;stroke-opacity:1" />
  </g>
</svg>
