<?xml version="1.0" encoding="UTF-8"?>
<!-- Generator: Adobe Illustrator 18.1.1, SVG Export Plug-In . SVG Version: 6.00 Build 0)  -->
<svg enable-background="new 0 0 117.9 144.2" preserveAspectRatio="xMidYMax" version="1.1" viewBox="0 0 117.9 144.2" xml:space="preserve" xmlns="http://www.w3.org/2000/svg" xmlns:xlink="http://www.w3.org/1999/xlink">

	<polygon points="84.4 106.5 91.7 139.2 91 144.2 79.5 144.1 77.7 110.7" fill="#EAB97A"/>
	<polygon points="85.9 113 77.9 114.1 78.1 116.6 86.4 115.5" fill="#845731"/>
	<polygon points="86.9 117.5 78.2 118.5 78.3 121.1 87.4 120.1" fill="#845731"/>
	<rect x="50.4" y="89.4" width="18.7" height="11.7" fill="#D69E63"/>
	<path d="M46.5,33L7.3,5.1c0,0-3.4,24.7-2.9,32.7c0.5,7.1,2.2,14.8,7,20.3c4.6,5.3,12.2,5.9,17.3,1L46.5,33z" fill="#835631"/>
	<path d="m70.6 33 39.2-28s3.4 24.7 2.9 32.7c-0.5 7.1-2.2 14.8-7 20.3-4.6 5.3-12.2 5.9-17.3 1l-17.8-26z" fill="#835631"/>
	<path d="m80.3 27.9c-2.8-1.5-6-2.5-9.4-3.2 1.3-0.9 6.1-1 6.1-1s-1.3-0.9-3.4-1.3c-2-0.4-5 0.4-5.1 0.4l0.1-0.1-0.1 0.1s2.4-1.4 3.3-3.3c-1 0.3-3.3 1-7.5 1.7-8.6 1.4-18.3 4.1-18.3 4.1-3.9 0.9-7.3 2.2-9.9 3.7-17.9 10.3-28.5 32.8-28.5 32.8s14 29.5 51.1 29.5c36.7 0 51-29.5 51-29.5s-13-25.3-29.4-33.9z" fill="#EAB97A"/>
	<path d="m43.9 47.6s5 3.4 5.6 12.9c0 0-6.7 2.5-13.9 1.3 8.8-1 11.4-3.4 11.4-3.4 0.7-3.9-3.1-10.8-3.1-10.8z" fill="#D69E63"/>
	<path d="m40.9 45.4c-10.5-5.1-17.1 7.4-18.6 10-0.6 0.9 4 3.7 5.4 4.3 5.6 2.9 16.1 2.2 19.8 0.7 0 0 1.7-10.9-6.6-15" fill="#fff"/>
	<g opacity=".6">
		
			<defs>
				<rect id="SVGID_1_" x="31.6" y="30.1" width="9.4" height="10"/>
			</defs>
			<clipPath id="SVGID_2_">
				<use xlink:href="#SVGID_1_"/>
			</clipPath>
		
	</g>
	<path d="m72.7 47.6s-5 3.4-5.6 12.9c0 0 6.7 2.5 13.9 1.3-8.8-1-11.4-3.4-11.4-3.4-0.7-3.9 3.1-10.8 3.1-10.8z" fill="#D69E63"/>
	<path d="m73.3 52.4c-0.1 4.1 2.8 7.4 6.5 7.4 3.6 0.1 6.6-3.2 6.7-7.2 0.1-4.1-2.8-7.4-6.5-7.4-3.6-0.1-6.6 3.1-6.7 7.2" fill="#020202"/>
	<path d="m79.9 52.5 4.7 5.1s-2.1 2.3-4.3 2.2c-3.4-0.1-5.2-2.3-5.2-2.3l4.8-5z" fill="#1A2C35"/>
	<polygon points="33.2 106.5 26 138.5 26.6 144.2 38.1 144.1 39.8 110.7" fill="#EAB97A"/>
	<path d="m76.1 110.3 0.8 3.1 11.3-5.2s-3.7-7.5-6.9-10.7c-0.1-0.1-0.3-0.2-0.5-0.4s-0.4-0.4-0.7-0.6c-1.6-1-3.9-2-6-2.8h-0.1c-2.5-1-4.6-1.7-4.6-1.7s-3.5 7.3-9.4 7.2c-6 0-9.4-7.2-9.4-7.2-3 0.3-11.2 4.6-11.2 4.6-4.2 1.8-9.7 12.1-9.7 12.1l11.3 4.8 1-3-2.7 33.8h39.3l-2.6-33.4 0.1-0.6z" fill="#E82538"/><g fill="#fff">
	<path d="m69 60.6c3.8 1.5 14 2 19.6-0.8 1.4-0.6 5.9-3.7 5.6-4.3-1.3-2.7-8.3-14.8-18.8-9.8-8.4 4-6.4 14.9-6.4 14.9"/>
	<rect x="52.5" y="110.4" width="2.5" height="2.5"/>
	<rect x="52.5" y="112.7" width="2.5" height="2.5"/>
	<rect x="52.5" y="115" width="2.5" height="2.5"/>
	<rect x="52.5" y="117.3" width="2.5" height="2.5"/>
	<rect x="55.4" y="109.5" width=".6" height=".6"/>
	<rect x="55.4" y="110.1" width=".6" height=".6"/>
	<rect x="55.4" y="110.7" width=".6" height=".6"/>
	<rect x="55.4" y="111.2" width=".6" height=".6"/>
	<rect x="56" y="109.5" width=".6" height=".6"/>
	<rect x="56" y="110.1" width=".6" height=".6"/>
	<rect x="56" y="110.7" width=".6" height=".6"/>
	<rect x="56" y="111.2" width=".6" height=".6"/>
	<rect x="56.7" y="109.2" width=".6" height=".6"/>
	<rect x="56.5" y="110.1" width=".6" height=".6"/>
	<rect x="56.5" y="110.7" width=".6" height=".6"/>
	<rect x="56.5" y="111.2" width=".6" height=".6"/>
	<rect x="59.8" y="106" width=".6" height=".6"/>
	<rect x="57.3" y="109.9" width=".6" height=".6"/>
	<rect x="57.1" y="110.7" width=".6" height=".6"/>
	<rect x="57.1" y="111.2" width=".6" height=".6"/>
	<rect x="54.8" y="112.7" width="2.5" height="2.5"/>
	<rect x="54.8" y="115" width="2.5" height="2.5"/>
	<rect x="54.8" y="117.3" width="2.5" height="2.5"/>
	<rect x="58.4" y="108.8" width=".6" height=".6"/>
	<rect x="58.4" y="109.3" width=".6" height=".6"/>
	<rect x="58.4" y="109.9" width=".6" height=".6"/>
	<rect x="58.4" y="110.5" width=".6" height=".6"/>
	<rect x="59.3" y="108.2" width=".6" height=".6"/>
	<rect x="59" y="109.3" width=".6" height=".6"/>
	<rect x="59" y="109.9" width=".6" height=".6"/>
	<rect x="59" y="110.5" width=".6" height=".6"/>
	<rect x="62.5" y="104.8" width=".6" height=".6"/>
	<rect x="60" y="108.9" width=".6" height=".6"/>
	<rect x="59.6" y="109.9" width=".6" height=".6"/>
	<rect x="59.6" y="110.5" width=".6" height=".6"/>
	<rect x="65.1" y="104.9" width=".6" height=".6"/>
	<rect x="63.7" y="106.1" width=".6" height=".6"/>
	<rect x="60.6" y="109.6" width=".6" height=".6"/>
	<rect x="60.1" y="110.5" width=".6" height=".6"/>
	<rect x="57.8" y="112" width=".6" height=".6"/>
	<rect x="57.8" y="112.5" width=".6" height=".6"/>
	<rect x="57.8" y="113.1" width=".6" height=".6"/>
	<rect x="57.8" y="113.7" width=".6" height=".6"/>
	<rect x="58.4" y="112" width=".6" height=".6"/>
	<rect x="58.4" y="112.5" width=".6" height=".6"/>
	<rect x="58.4" y="113.1" width=".6" height=".6"/>
	<rect x="58.4" y="113.7" width=".6" height=".6"/>
	<rect x="59.2" y="111.7" width=".6" height=".6"/>
	<rect x="59" y="112.5" width=".6" height=".6"/>
	<rect x="59" y="113.1" width=".6" height=".6"/>
	<rect x="59" y="113.7" width=".6" height=".6"/>
	<rect x="62.6" y="108.9" width=".6" height=".6"/>
	<rect x="59.8" y="112.3" width=".6" height=".6"/>
	<rect x="59.5" y="113.1" width=".6" height=".6"/>
	<rect x="59.5" y="113.7" width=".6" height=".6"/>
	<rect x="57.1" y="115" width="2.5" height="2.5"/>
	<rect x="57.1" y="117.3" width="2.5" height="2.5"/>
	<rect x="61.6" y="108.2" width=".6" height=".6"/>
	<rect x="61.6" y="108.7" width=".6" height=".6"/>
	<rect x="61.6" y="109.3" width=".6" height=".6"/>
	<rect x="61.6" y="109.9" width=".6" height=".6"/>
	<rect x="64.8" y="104.4" width=".6" height=".6"/>
	<rect x="62.2" y="108.7" width=".6" height=".6"/>
	<rect x="62.2" y="109.3" width=".6" height=".6"/>
	<rect x="62.2" y="109.9" width=".6" height=".6"/>
	<rect x="68" y="102" width=".6" height=".6"/>
	</g><g opacity=".8973">
		
			<defs>
				<rect id="SVGID_3_" x="64.1" y="107.7" width=".6" height=".6"/>
			</defs>
			<clipPath id="SVGID_4_">
				<use xlink:href="#SVGID_3_"/>
			</clipPath>
			<rect x="64.1" y="107.7" width=".6" height=".6" clip-path="url(#SVGID_4_)" fill="#fff"/>
		
	</g>
	<rect x="62.8" y="109.3" width=".6" height=".6" fill="#fff"/>
	
		<linearGradient id="SVGID_5_" x1="72.692" x2="88.871" y1="52.959" y2="52.959" gradientTransform="translate(-.1323 .1345)" gradientUnits="userSpaceOnUse">
		<stop stop-color="#1E9A63" offset="0"/>
		<stop stop-color="#228181" offset="1"/>
	</linearGradient>
	<ellipse cx="80.7" cy="53.1" rx="8.3" ry="8.6" fill="url(#SVGID_5_)"/><g fill="#fff">
	<rect x="62.8" y="109.9" width=".6" height=".6"/>
	<rect x="71.5" y="100.1" width=".6" height=".6"/>
	<rect x="69.9" y="103.3" width=".6" height=".6"/>
	<rect x="66.7" y="106.9" width=".6" height=".6"/>
	<rect x="63.3" y="109.9" width=".6" height=".6"/>
	<rect x="61" y="111.4" width=".6" height=".6"/>
	<rect x="61" y="111.9" width=".6" height=".6"/>
	<rect x="61" y="112.5" width=".6" height=".6"/>
	<rect x="61" y="113.1" width=".6" height=".6"/>
	<rect x="61.9" y="110.9" width=".6" height=".6"/>
	<rect x="61.6" y="111.9" width=".6" height=".6"/>
	<rect x="61.6" y="112.5" width=".6" height=".6"/>
	<rect x="61.6" y="113.1" width=".6" height=".6"/>
	<rect x="65.6" y="107.7" width=".6" height=".6"/>
	<rect x="62.6" y="111.5" width=".6" height=".6"/>
	<rect x="62.2" y="112.5" width=".6" height=".6"/>
	<rect x="62.2" y="113.1" width=".6" height=".6"/>
	<rect x="66.8" y="106.7" width=".6" height=".6"/>
	<rect x="65.9" y="109.1" width=".6" height=".6"/>
	<rect x="63.3" y="112.2" width=".6" height=".6"/>
	<rect x="62.7" y="113.1" width=".6" height=".6"/>
	<rect x="60.3" y="114.4" width=".6" height=".6"/>
	<rect x="60.3" y="115" width=".6" height=".6"/>
	<rect x="60.3" y="115.5" width=".6" height=".6"/>
	<rect x="60.3" y="116.1" width=".6" height=".6"/>
	<rect x="60.8" y="114.4" width=".6" height=".6"/>
	<rect x="60.8" y="115" width=".6" height=".6"/>
	<rect x="60.8" y="115.5" width=".6" height=".6"/>
	<rect x="60.8" y="116.1" width=".6" height=".6"/>
	<rect x="61.6" y="114.2" width=".6" height=".6"/>
	<rect x="61.4" y="115" width=".6" height=".6"/>
	<rect x="61.4" y="115.5" width=".6" height=".6"/>
	<rect x="61.4" y="116.1" width=".6" height=".6"/>
	<rect x="65.5" y="111.7" width=".6" height=".6"/>
	<rect x="62.3" y="114.8" width=".6" height=".6"/>
	<rect x="62" y="115.5" width=".6" height=".6"/>
	<rect x="62" y="116.1" width=".6" height=".6"/>
	<rect x="59.4" y="117.3" width="2.5" height="2.5"/>
	</g><polygon points="31.7 113 39.6 114.1 39.5 116.6 31.2 115.5" fill="#845731"/>
	<polygon points="30.7 117.5 39.4 118.5 39.3 121.1 30.1 120.1" fill="#845731"/>
	
		<linearGradient id="SVGID_6_" x1="28.062" x2="44.241" y1="52.794" y2="52.794" gradientTransform="translate(-.1323 .1345)" gradientUnits="userSpaceOnUse">
		<stop stop-color="#1E9A63" offset="0"/>
		<stop stop-color="#228181" offset="1"/>
	</linearGradient>
	<ellipse cx="36" cy="52.9" rx="8.3" ry="8.6" fill="url(#SVGID_6_)"/>
	<path d="m41.9 53.4c0.1 3.5-2.4 6.3-5.6 6.3-3.1 0-5.7-2.7-5.8-6.2s2.4-6.3 5.6-6.3c3.2-0.1 5.8 2.7 5.8 6.2" fill="#020202"/>
	<path d="m36.3 53.6-4 4.2s1.8 1.9 3.7 1.8c2.9 0 4.4-1.9 4.4-1.9l-4.1-4.1z" fill="#1A2C35"/>
	<path d="m85.9 53.4c0.1 3.5-2.4 6.3-5.6 6.4-3.1 0-5.7-2.7-5.8-6.2s2.4-6.3 5.6-6.4 5.8 2.7 5.8 6.2" fill="#020202"/>
	<path d="m80.3 53.6-4 4.2s1.8 1.9 3.7 1.8c2.9 0 4.4-1.9 4.4-1.9l-4.1-4.1z" fill="#1A2C35"/>
	<path d="m84.4 30.4s-1 5.3-5.4 9.6c0 0 8-1.4 11.2-4.7 0 0-2.8-2.9-5.8-4.9z" fill="#835631"/>
	<path d="m33.2 30.4s1 5.3 5.4 9.6c0 0-8-1.5-11.2-4.7 0 0 4.8-4.2 5.8-4.9z" fill="#835631"/>
	<path d="m37.7 28.2 1.1-0.5-31.5-23 20.2 30.6c2.3-2.1 5.7-4.9 10.2-7.1z" fill="#483729"/>
	<path d="m90.2 35.3 19.6-30.2-31 22.1 1.6 0.8c2.3 1.2 6 3.5 9.8 7.3z" fill="#483729"/>
	<g transform="translate(2.3)" fill="#fff">
		<path d="m45.4 127.1c0.1 0.1 0.4 0.2 0.6 0.2 0.3 0 0.4-0.1 0.4-0.3s-0.1-0.3-0.4-0.4c-0.5-0.2-0.7-0.5-0.7-0.8 0-0.5 0.4-0.8 0.9-0.8 0.3 0 0.5 0.1 0.6 0.1l-0.1 0.5c-0.1-0.1-0.3-0.1-0.5-0.1s-0.3 0.1-0.3 0.3 0.1 0.2 0.4 0.4c0.4 0.2 0.7 0.4 0.7 0.8 0 0.5-0.4 0.8-1 0.8-0.3 0-0.6-0.1-0.7-0.2z"/>
		<path d="m49.4 127v0.6h-0.6v-0.3c-0.2 0.2-0.4 0.3-0.7 0.3-0.5 0-0.8-0.4-0.8-0.8 0-0.7 0.6-1 1.5-1 0-0.2-0.1-0.5-0.5-0.5-0.2 0-0.5 0.1-0.6 0.2l-0.1-0.4c0.2-0.1 0.5-0.2 0.9-0.2 0.8 0 1 0.5 1 1.1v1zm-0.6-0.6c-0.4 0-0.8 0.1-0.8 0.5 0 0.3 0.2 0.4 0.4 0.4s0.4-0.1 0.5-0.3v-0.1-0.5z"/>
		<path d="m50.1 125.8v-0.8h0.6v0.4c0.1-0.2 0.4-0.4 0.8-0.4 0.5 0 0.9 0.3 0.9 1.1v1.6h-0.6v-1.5c0-0.3-0.1-0.6-0.4-0.6-0.2 0-0.4 0.2-0.5 0.4v0.2 1.6h-0.6v-2z"/>
		<path d="m55.2 123.8v3.1 0.7h-0.6v-0.4c-0.1 0.3-0.4 0.4-0.8 0.4-0.6 0-1-0.5-1-1.3 0-0.9 0.5-1.4 1.1-1.4 0.3 0 0.5 0.1 0.7 0.3v-1.5h0.6zm-0.7 2.3v-0.2c0-0.2-0.2-0.4-0.5-0.4-0.4 0-0.6 0.4-0.6 0.9s0.2 0.8 0.6 0.8c0.2 0 0.4-0.1 0.5-0.4v-0.2z"/>
		<path d="m55.8 127.1c0.1 0.1 0.4 0.2 0.6 0.2 0.3 0 0.4-0.1 0.4-0.3s-0.1-0.3-0.4-0.4c-0.5-0.2-0.7-0.5-0.7-0.8 0-0.5 0.4-0.8 0.9-0.8 0.3 0 0.5 0.1 0.6 0.1l-0.1 0.5c-0.1-0.1-0.3-0.1-0.5-0.1s-0.3 0.1-0.3 0.3 0.1 0.2 0.4 0.4c0.4 0.2 0.7 0.4 0.7 0.8 0 0.5-0.4 0.8-1 0.8-0.3 0-0.6-0.1-0.7-0.2z"/>
		<path d="m58.7 124.4v0.7h0.6v0.5h-0.6v1.2c0 0.3 0.1 0.5 0.3 0.5h0.2v0.5c-0.1 0-0.3 0.1-0.5 0.1s-0.4-0.1-0.5-0.2-0.2-0.4-0.2-0.7v-1.3h-0.4v-0.5h0.4v-0.5z"/>
		<path d="m62 126.3c0 1-0.6 1.4-1.2 1.4-0.7 0-1.2-0.5-1.2-1.4s0.5-1.4 1.2-1.4c0.7 0.1 1.2 0.6 1.2 1.4zm-1.8 0.1c0 0.5 0.2 0.9 0.6 0.9s0.6-0.4 0.6-0.9c0-0.4-0.1-0.9-0.6-0.9-0.4 0-0.6 0.4-0.6 0.9z"/>
		<path d="m62.5 125.8v-0.8h0.6v0.5c0.1-0.3 0.4-0.5 0.7-0.5h0.1v0.6h-0.2c-0.3 0-0.5 0.2-0.6 0.5v0.2 1.4h-0.6z"/>
		<path d="m64.3 125.8v-0.8h0.6v0.4c0.1-0.2 0.4-0.4 0.8-0.4 0.3 0 0.6 0.2 0.7 0.5l0.3-0.3c0.1-0.1 0.3-0.1 0.5-0.1 0.4 0 0.8 0.3 0.8 1.1v1.6h-0.6v-1.5c0-0.4-0.1-0.7-0.4-0.7-0.2 0-0.4 0.1-0.4 0.3v0.2 1.6h-0.6v-1.6c0-0.3-0.1-0.6-0.4-0.6-0.2 0-0.4 0.2-0.4 0.4v0.2 1.6h-0.6v-1.9z"/>
		
		
		
	</g>
	<path d="m66.2 43.5z" fill="#A05D29"/>
	<path d="m76.1 26.1c-0.9-0.3-2.2-0.7-2.6-0.8 0.7 0.7 1.7 2.1 1.2 4-0.3 0.9-1.4 2.5-4.4 4.9-2.4 1.7-6.8 5.4-4.1 9.3 0 0 0-0.4 0.1-1 0 0.3-0.1 0.6-0.1 1 0-0.4 0.3-4.6 6.8-7.5 0.1 0 5.6-2.4 6.1-5.3 0.4-2.2-2-4-3-4.6z" fill="#835631"/>
	<path d="m41.6 26.6c0.9-0.3 2.2-0.7 2.6-0.8-0.7 0.7-1.7 1.6-1.2 3.5 0.3 0.9 1.4 2.5 4.4 4.9 2.4 1.7 6.8 5.4 4.1 9.3 0 0 0-0.4-0.1-1 0 0.3 0.1 0.6 0.1 1 0-0.4-0.3-4.6-6.8-7.5-0.1 0-5.6-2.4-6.1-5.3-0.4-2.2 1.9-3.5 3-4.1z" fill="#835631"/>
	<path d="m40.9 117" fill="#AA5529"/>
	<path d="m10 57.3s-1 1.7-1.4 2.3c-0.2 0.4-1.2 2.3-1.2 2.3s0.7 1.1 1.5 2.5c0.8 1.3 2.6 3.7 2.6 3.7s2 0 6.9-0.9c4.7-0.9 10.4-3.3 10.4-3.3-11.1-2.4-18.8-6.6-18.8-6.6z" fill="#845731"/>
	<path d="m107.3 57.3s1 1.7 1.4 2.3l1.1 2.2s-0.4 0.9-1.5 2.6c-0.8 1.3-2.6 3.7-2.6 3.7s-2 0-6.9-0.9c-4.7-0.9-10.4-3.3-10.4-3.3 11.1-2.4 18.9-6.6 18.9-6.6z" fill="#845731"/>
	<rect x="31.9" y="47.6" width="2.3" height="2.3" fill="#FFF5D9"/>
	<rect x="75.7" y="47.8" width="2.3" height="2.3" fill="#FFF5D9"/>
	
		<path d="m51.5 66.8-0.7-0.5s1.2 3 2.9 4.1c2.2 1.4 5.1 2.3 5.1 2.3s4.6-2.1 6-3.2c1.8-1.5 1.8-3.2 1.8-3.2l-3.5 0.7-2.9 1.8-4.2-0.9-4.5-1.1z" fill="#D69F63"/>
	
	
		<path d="m52.1 76.2c4.5-0.3 6.3-2.4 6.3-2.4l0.4 0.9c-1.1 0.6-6.1 4.5-11.5 1.3-2.1-1.3-2.8-4-2.8-4s2 4.5 7.6 4.2z" fill="#845731"/>
	
	
		<path d="m65.7 76.2c-4.5-0.3-6.3-2.4-6.3-2.4l-0.4 0.8c1.1 0.6 6.1 4.5 11.5 1.3 2.1-1.3 2.8-4 2.8-4s-1.9 4.6-7.6 4.3z" fill="#845731"/>
	
	<path d="m52.7 66.3h-1.9s0.6 1.3 1.5 2.5c1 1.1 2.2 1.3 2.2 1.3s-2.6-2.5-1.8-3.8z"/>
	<path d="m64.9 66.3h1.9s-0.1 1.4-1.4 2.5c-1.2 1-2.2 1.3-2.2 1.3s3.5-3 1.7-3.8z"/>
	<path d="m59.4 74.9-0.5-0.3-0.6 0.4s-0.5-0.6-0.4-0.6c0.5-0.3 0.6-0.9 0.6-1.5 0-0.9-0.2-1.7-0.2-1.7h1.1s-0.2 0.9-0.2 1.7c0 0.5 0.1 1.2 0.6 1.4 0.2 0-0.4 0.6-0.4 0.6z" fill="#845731"/>
	<path d="m50.8 66.3s1.7-0.9 2.8-0.7 3.1 1.4 5.2 1.4 3.3-1.5 5.1-1.5c1.7 0 2.8 0.7 2.8 0.7s-5.3 4.9-7.7 4.9c-1.6 0.1-4-1.3-8.2-4.8z" fill="#483729"/>

</svg>
